<svg id="Layer_1" data-name="Layer 1" xmlns="http://www.w3.org/2000/svg" viewBox="0 0 321 210"><defs><style>.cls-1{fill:#2d3047;}.cls-2{fill:#fffd82;}.cls-3{fill:#fff;}</style></defs><circle class="cls-1" cx="160.9" cy="119.24" r="5.57"/><circle class="cls-1" cx="142.42" cy="109.36" r="7.85"/><circle class="cls-1" cx="126.22" cy="95.94" r="8.36"/><circle class="cls-2" cx="107.74" cy="84.8" r="7.72"/><circle class="cls-2" cx="107.74" cy="130.38" r="4.56"/><circle class="cls-2" cx="86.22" cy="132.91" r="6.33"/><path class="cls-2" d="M79.51,132.91a6.71,6.71,0,1,1,6.71,6.7A6.71,6.71,0,0,1,79.51,132.91Zm12.66,0a6,6,0,1,0-6,6A6,6,0,0,0,92.17,132.91Z"/><circle class="cls-2" cx="86.22" cy="81.26" r="6.58"/><circle class="cls-2" cx="66.21" cy="129.11" r="8.1"/><circle class="cls-2" cx="66.21" cy="84.8" r="5.32"/><circle class="cls-1" cx="47.22" cy="117.21" r="7.85"/><circle class="cls-1" cx="31.53" cy="104.3" r="6.71"/><circle class="cls-1" cx="13.3" cy="94.42" r="4.3"/><line class="cls-2" x1="107.74" y1="87.08" x2="107.74" y2="100.85"/><rect class="cls-2" x="106.62" y="87.08" width="2.23" height="13.77"/><line class="cls-2" x1="107.74" y1="117.04" x2="107.74" y2="131.07"/><rect class="cls-2" x="106.62" y="117.04" width="2.23" height="14.03"/><line class="cls-2" x1="86.22" y1="87.08" x2="86.22" y2="100.85"/><rect class="cls-2" x="85.1" y="87.08" width="2.23" height="13.77"/><line class="cls-2" x1="86.22" y1="117.3" x2="86.22" y2="127.83"/><rect class="cls-2" x="85.1" y="117.3" width="2.23" height="10.53"/><line class="cls-2" x1="66.21" y1="87.08" x2="66.21" y2="100.85"/><rect class="cls-2" x="65.1" y="87.08" width="2.23" height="13.77"/><line class="cls-2" x1="66.21" y1="117.3" x2="66.21" y2="131.07"/><rect class="cls-2" x="65.1" y="117.3" width="2.23" height="13.77"/><line class="cls-1" x1="47.22" y1="95.12" x2="47.22" y2="122.65"/><path class="cls-1" d="M46.11,122.65V95.12a1.12,1.12,0,1,1,2.23,0v27.53a1.12,1.12,0,1,1-2.23,0Z"/><line class="cls-1" x1="125.16" y1="95.12" x2="125.16" y2="122.65"/><path class="cls-1" d="M124,122.65V95.12a1.12,1.12,0,1,1,2.23,0v27.53a1.12,1.12,0,1,1-2.23,0Z"/><circle class="cls-1" cx="307.07" cy="118.79" r="5.57"/><circle class="cls-1" cx="288.59" cy="108.92" r="7.85"/><circle class="cls-1" cx="272.39" cy="95.5" r="8.36"/><circle class="cls-2" cx="253.91" cy="84.36" r="7.72"/><circle class="cls-2" cx="253.91" cy="129.93" r="4.56"/><circle class="cls-2" cx="232.39" cy="132.46" r="6.33"/><path class="cls-2" d="M225.68,132.46a6.71,6.71,0,1,1,6.71,6.71A6.72,6.72,0,0,1,225.68,132.46Zm12.66,0a6,6,0,1,0-6,6A6,6,0,0,0,238.34,132.46Z"/><circle class="cls-2" cx="232.39" cy="80.81" r="6.58"/><circle class="cls-2" cx="212.38" cy="128.67" r="8.1"/><circle class="cls-2" cx="212.38" cy="84.36" r="5.32"/><circle class="cls-1" cx="193.39" cy="116.77" r="7.85"/><circle class="cls-1" cx="177.7" cy="103.85" r="6.71"/><line class="cls-2" x1="253.91" y1="86.64" x2="253.91" y2="100.41"/><rect class="cls-2" x="252.79" y="86.64" width="2.23" height="13.77"/><line class="cls-2" x1="253.91" y1="116.6" x2="253.91" y2="130.63"/><rect class="cls-2" x="252.79" y="116.6" width="2.23" height="14.03"/><line class="cls-2" x1="232.39" y1="86.64" x2="232.39" y2="100.41"/><rect class="cls-2" x="231.27" y="86.64" width="2.23" height="13.77"/><line class="cls-2" x1="232.39" y1="116.86" x2="232.39" y2="127.39"/><rect class="cls-2" x="231.27" y="116.86" width="2.23" height="10.53"/><line class="cls-2" x1="212.38" y1="86.64" x2="212.38" y2="100.41"/><rect class="cls-2" x="211.27" y="86.64" width="2.23" height="13.77"/><line class="cls-2" x1="212.38" y1="116.86" x2="212.38" y2="130.63"/><rect class="cls-2" x="211.27" y="116.86" width="2.23" height="13.77"/><line class="cls-1" x1="193.39" y1="94.68" x2="193.39" y2="122.21"/><path class="cls-1" d="M192.28,122.21V94.68a1.12,1.12,0,1,1,2.23,0v27.53a1.12,1.12,0,1,1-2.23,0Z"/><line class="cls-1" x1="271.33" y1="94.68" x2="271.33" y2="122.21"/><path class="cls-1" d="M270.21,122.21V94.68a1.12,1.12,0,1,1,2.23,0v27.53a1.12,1.12,0,1,1-2.23,0Z"/><path class="cls-3" d="M52.3,53.86a13.32,13.32,0,0,1-4.9-5.12,14.57,14.57,0,0,1-1.76-7.1,14.76,14.76,0,0,1,1.76-7.2,12.83,12.83,0,0,1,4.92-5,14,14,0,0,1,7.12-1.82A13.46,13.46,0,0,1,65,28.7,16,16,0,0,1,69.68,32l-1.56,1.6A12.37,12.37,0,0,0,64.32,31,12,12,0,0,0,59.44,30a11.06,11.06,0,0,0-5.78,1.52,10.71,10.71,0,0,0-4,4.16,13,13,0,0,0,0,11.8,10.74,10.74,0,0,0,9.74,5.8,10.65,10.65,0,0,0,5-1.2,11.12,11.12,0,0,0,3.84-3.32l1.88,1.48a12.72,12.72,0,0,1-4.52,4,13,13,0,0,1-6.24,1.48A13.47,13.47,0,0,1,52.3,53.86Z"/><path class="cls-3" d="M94.8,55.16v.12h-3L84.12,44H78V55.28H75.32V28.08H85.6A9.21,9.21,0,0,1,90,29.14,8.31,8.31,0,0,1,93.12,32a7.45,7.45,0,0,1,1.16,4.06,7.28,7.28,0,0,1-2,5.18A8.82,8.82,0,0,1,87,43.88ZM85.48,41.6A6.39,6.39,0,0,0,90,40.08a5.1,5.1,0,0,0,1.66-4,5.46,5.46,0,0,0-.78-2.86,5.6,5.6,0,0,0-2.14-2,6.48,6.48,0,0,0-3.12-.74H78V41.6Z"/><path class="cls-3" d="M100.32,28.08H103v27.2h-2.64Z"/><path class="cls-3" d="M113.48,54.88a13.41,13.41,0,0,1-4.24-2.4l1.36-2.08a10.93,10.93,0,0,0,3.62,2.16,12.45,12.45,0,0,0,4.38.76A7.37,7.37,0,0,0,123.12,52,4.32,4.32,0,0,0,125,48.28a4.1,4.1,0,0,0-.88-2.68,7,7,0,0,0-2.26-1.78,31.87,31.87,0,0,0-3.54-1.46,20.46,20.46,0,0,1-6-3.1A5.86,5.86,0,0,1,110,34.4a5.94,5.94,0,0,1,1.14-3.62,7.34,7.34,0,0,1,3-2.36,10.48,10.48,0,0,1,4.14-.82,14.27,14.27,0,0,1,4.32.64,13.43,13.43,0,0,1,3.92,2.08l-1.2,2A13,13,0,0,0,122,30.6a11.41,11.41,0,0,0-3.6-.56,7.27,7.27,0,0,0-4.06,1.12,3.55,3.55,0,0,0-1.7,3.12,3.83,3.83,0,0,0,.9,2.6,6.68,6.68,0,0,0,2.2,1.68,30.83,30.83,0,0,0,3.46,1.4,20.76,20.76,0,0,1,6.18,3.24,6.1,6.1,0,0,1,2.18,5,6.86,6.86,0,0,1-1.2,4,7.68,7.68,0,0,1-3.24,2.64,10.87,10.87,0,0,1-4.56.92A14.9,14.9,0,0,1,113.48,54.88Z"/><path class="cls-3" d="M133.64,28.08h10a8.51,8.51,0,0,1,4.62,1.22,8.18,8.18,0,0,1,2.94,3.14,8.37,8.37,0,0,1,1,3.92,8.16,8.16,0,0,1-1,3.84,7.43,7.43,0,0,1-2.94,3,9.33,9.33,0,0,1-4.82,1.16h-7.24V55.28h-2.64ZM143.48,42a6.58,6.58,0,0,0,3.38-.8,5.15,5.15,0,0,0,2.06-2.08,5.81,5.81,0,0,0,.68-2.76,6,6,0,0,0-.74-2.9,5.6,5.6,0,0,0-2.1-2.14,6.09,6.09,0,0,0-3.12-.8h-7.36V42Z"/><path class="cls-3" d="M177,55.16v.12h-3L166.36,44H160.2V55.28h-2.64V28.08h10.28a9.21,9.21,0,0,1,4.38,1.06A8.31,8.31,0,0,1,175.36,32a7.45,7.45,0,0,1,1.16,4.06,7.28,7.28,0,0,1-2,5.18,8.82,8.82,0,0,1-5.28,2.62ZM167.72,41.6a6.39,6.39,0,0,0,4.5-1.52,5.1,5.1,0,0,0,1.66-4,5.46,5.46,0,0,0-.78-2.86,5.6,5.6,0,0,0-2.14-2,6.48,6.48,0,0,0-3.12-.74H160.2V41.6Z"/><path class="cls-3" d="M180,55.68l10.48-28h2.44l-10.48,28Z"/><path class="cls-3" d="M202.5,53.86a13.32,13.32,0,0,1-4.9-5.12,14.57,14.57,0,0,1-1.76-7.1,14.76,14.76,0,0,1,1.76-7.2,12.83,12.83,0,0,1,4.92-5,14,14,0,0,1,7.12-1.82,13.46,13.46,0,0,1,5.56,1.1A16,16,0,0,1,219.88,32l-1.56,1.6a12.37,12.37,0,0,0-3.8-2.68,12,12,0,0,0-4.88-.92,11.06,11.06,0,0,0-5.78,1.52,10.71,10.71,0,0,0-4,4.16,13,13,0,0,0,0,11.8,10.74,10.74,0,0,0,9.74,5.8,10.65,10.65,0,0,0,5-1.2,11.12,11.12,0,0,0,3.84-3.32l1.88,1.48a12.72,12.72,0,0,1-4.52,4,13,13,0,0,1-6.24,1.48A13.47,13.47,0,0,1,202.5,53.86Z"/><path class="cls-3" d="M236.58,39a5.71,5.71,0,0,1,1.82,4.54V55.28h-1.8l-.44-3.2a7.12,7.12,0,0,1-2.7,2.58,8,8,0,0,1-4,.94,6.07,6.07,0,0,1-4.12-1.32,4.53,4.53,0,0,1-1.52-3.6,5.25,5.25,0,0,1,2.44-4.58,11.23,11.23,0,0,1,6.4-1.66,27.82,27.82,0,0,1,3.24.16V43.4a3.33,3.33,0,0,0-1.2-2.78,5.22,5.22,0,0,0-3.28-.94,14,14,0,0,0-5.84,1.48l-.84-2.08a16.36,16.36,0,0,1,6.92-1.68A7.23,7.23,0,0,1,236.58,39ZM234.22,51.5a7.32,7.32,0,0,0,1.7-4.86,24.7,24.7,0,0,0-2.88-.16,9.51,9.51,0,0,0-4.9,1.06,3.32,3.32,0,0,0-1.74,3,2.5,2.5,0,0,0,.92,2.06,3.94,3.94,0,0,0,2.56.74A5.5,5.5,0,0,0,234.22,51.5Z"/><path class="cls-3" d="M243,53.64l1.24-1.92a8.69,8.69,0,0,0,5.2,1.6,4.12,4.12,0,0,0,2.58-.74,2.32,2.32,0,0,0,1-1.94,2.26,2.26,0,0,0-1-1.9,15.6,15.6,0,0,0-3-1.54A13.69,13.69,0,0,1,245,45a3.91,3.91,0,0,1-1.38-3.14,3.82,3.82,0,0,1,1.66-3.3,6.88,6.88,0,0,1,4.06-1.18,9.75,9.75,0,0,1,5.36,1.6l-1.08,1.76a8.46,8.46,0,0,0-4.16-1.12,4.92,4.92,0,0,0-2.44.54,1.82,1.82,0,0,0-1,1.7,2.12,2.12,0,0,0,.94,1.78,12.15,12.15,0,0,0,2.78,1.42,14.41,14.41,0,0,1,4.2,2.28,4.12,4.12,0,0,1,1.44,3.28,4.41,4.41,0,0,1-1.68,3.58,6.58,6.58,0,0,1-4.32,1.38A11.17,11.17,0,0,1,243,53.64Z"/><path class="cls-3" d="M273.76,31.3a11.69,11.69,0,0,1,2.2,7.34q0,7.53-3.28,11.92t-10.52,5.12l-.32-2.32a12.38,12.38,0,0,0,8-3.18,12.14,12.14,0,0,0,3.42-7.62,7.33,7.33,0,0,1-6.12,2.64,8.57,8.57,0,0,1-4-.94,7.14,7.14,0,0,1-2.92-2.8,8.72,8.72,0,0,1-1.1-4.5,9.2,9.2,0,0,1,1-4.38,7.61,7.61,0,0,1,2.94-3,8.54,8.54,0,0,1,4.34-1.1A7.57,7.57,0,0,1,273.76,31.3Zm-2.1,10a5.72,5.72,0,0,0,1.66-4.4,6.06,6.06,0,0,0-1.62-4.32,5.6,5.6,0,0,0-4.26-1.72,5.46,5.46,0,0,0-4.1,1.68,6.08,6.08,0,0,0-1.62,4.4,5.44,5.44,0,0,0,5.72,5.92A5.92,5.92,0,0,0,271.66,41.32Z"/><path class="cls-3" d="M85.5,184.52a12.77,12.77,0,0,1-4.65-4.86,14.66,14.66,0,0,1,0-13.59,12.1,12.1,0,0,1,4.67-4.77,13.35,13.35,0,0,1,6.77-1.73,12.7,12.7,0,0,1,5.28,1.05,15.08,15.08,0,0,1,4.45,3.17l-1.49,1.52a11.78,11.78,0,0,0-3.61-2.55,11.38,11.38,0,0,0-4.63-.87,10.46,10.46,0,0,0-5.49,1.44,10.12,10.12,0,0,0-3.77,4,12.39,12.39,0,0,0,0,11.21A10.27,10.27,0,0,0,92.29,184a10.14,10.14,0,0,0,4.79-1.14,10.6,10.6,0,0,0,3.64-3.16l1.79,1.41a12.11,12.11,0,0,1-10.22,5.2A12.88,12.88,0,0,1,85.5,184.52Z"/><path class="cls-3" d="M117.88,170.38a5.42,5.42,0,0,1,1.73,4.32v11.17H117.9l-.42-3a6.84,6.84,0,0,1-2.56,2.45,7.76,7.76,0,0,1-3.78.89,5.8,5.8,0,0,1-3.92-1.25,4.31,4.31,0,0,1-1.44-3.42,5,5,0,0,1,2.32-4.35,10.61,10.61,0,0,1,6.08-1.58,25.22,25.22,0,0,1,3.07.15v-1.14a3.16,3.16,0,0,0-1.14-2.64,5,5,0,0,0-3.11-.89,13.28,13.28,0,0,0-5.55,1.4l-.8-2a15.45,15.45,0,0,1,6.58-1.6A6.84,6.84,0,0,1,117.88,170.38Zm-2.24,11.9a7,7,0,0,0,1.61-4.62,22.44,22.44,0,0,0-2.73-.15,8.91,8.91,0,0,0-4.66,1,3.14,3.14,0,0,0-1.65,2.83,2.37,2.37,0,0,0,.87,2,3.81,3.81,0,0,0,2.44.71A5.26,5.26,0,0,0,115.64,182.28Z"/><path class="cls-3" d="M124,184.31l1.18-1.82A8.27,8.27,0,0,0,130.1,184a4,4,0,0,0,2.45-.71,2.2,2.2,0,0,0,.93-1.84,2.12,2.12,0,0,0-1-1.8,14.35,14.35,0,0,0-2.89-1.47,13.09,13.09,0,0,1-3.7-2.07,3.71,3.71,0,0,1-1.31-3,3.64,3.64,0,0,1,1.57-3.14,6.54,6.54,0,0,1,3.86-1.12,9.24,9.24,0,0,1,5.09,1.52l-1,1.67a8.11,8.11,0,0,0-4-1.06,4.67,4.67,0,0,0-2.31.51,1.74,1.74,0,0,0-.92,1.62,2,2,0,0,0,.9,1.69,11.74,11.74,0,0,0,2.64,1.35,13.5,13.5,0,0,1,4,2.16,3.93,3.93,0,0,1,1.37,3.12,4.21,4.21,0,0,1-1.6,3.4,6.21,6.21,0,0,1-4.1,1.31A10.62,10.62,0,0,1,124,184.31Z"/><path class="cls-3" d="M167.91,185.87h-2.44L163,168.05c-.16-1.07-.24-1.92-.27-2.55l-1.41,2.32-7.22,11.66h-.57l-7.25-11.74-1.33-2.16c0,.3-.14,1.12-.35,2.47l-2.47,17.82h-2.47l3.69-26.07h.76L152.17,173c.64,1,1.17,1.92,1.6,2.73.35-.68.89-1.6,1.6-2.77l8.13-13.11h.72Z"/><path class="cls-3" d="M175.89,185.17a7.89,7.89,0,0,1-3.08-3.14,10,10,0,0,1,0-9.12,7.8,7.8,0,0,1,3.08-3.13,8.87,8.87,0,0,1,4.48-1.13,9,9,0,0,1,4.52,1.13,8,8,0,0,1,3.1,3.13,9.84,9.84,0,0,1,0,9.12,8.07,8.07,0,0,1-3.1,3.14,9.07,9.07,0,0,1-4.52,1.12A9,9,0,0,1,175.89,185.17Zm9.08-2.91a7.37,7.37,0,0,0,0-9.58,6.09,6.09,0,0,0-4.62-1.86,6.37,6.37,0,0,0-3.27.85,6,6,0,0,0-2.24,2.38,7.25,7.25,0,0,0-.8,3.42,6.67,6.67,0,0,0,1.77,4.79,6,6,0,0,0,4.54,1.86A6.1,6.1,0,0,0,185,182.26Z"/><path class="cls-3" d="M207.62,169.07v16.8h-1.79l-.5-2.93a5.86,5.86,0,0,1-2.22,2.34,6.43,6.43,0,0,1-3.4.89,5.62,5.62,0,0,1-4.58-1.84,7.66,7.66,0,0,1-1.54-5V169.07h2.32v10.26q0,4.68,4.07,4.68a4.62,4.62,0,0,0,3.87-1.9,7.48,7.48,0,0,0,1.45-4.68v-8.36Z"/><path class="cls-3" d="M212.21,184.31l1.18-1.82a8.32,8.32,0,0,0,4.94,1.52,4,4,0,0,0,2.45-.71,2.2,2.2,0,0,0,.93-1.84,2.13,2.13,0,0,0-1-1.8,14.63,14.63,0,0,0-2.89-1.47,13.16,13.16,0,0,1-3.71-2.07,3.74,3.74,0,0,1-1.31-3A3.65,3.65,0,0,1,214.4,170a6.53,6.53,0,0,1,3.85-1.12,9.25,9.25,0,0,1,5.1,1.52l-1,1.67a8.07,8.07,0,0,0-3.95-1.06,4.72,4.72,0,0,0-2.32.51,1.73,1.73,0,0,0-.91,1.62,2,2,0,0,0,.89,1.69,12.2,12.2,0,0,0,2.64,1.35,13.5,13.5,0,0,1,4,2.16,3.9,3.9,0,0,1,1.37,3.12,4.2,4.2,0,0,1-1.59,3.4,6.25,6.25,0,0,1-4.11,1.31A10.67,10.67,0,0,1,212.21,184.31Z"/><path class="cls-3" d="M241.11,170.86a8.5,8.5,0,0,1,2,5.93,12,12,0,0,1-.12,1.63H229.54a6.08,6.08,0,0,0,2.05,4.16,6.24,6.24,0,0,0,4.22,1.54,7.43,7.43,0,0,0,2.91-.51,7.06,7.06,0,0,0,2.22-1.54l1.33,1.67a9.42,9.42,0,0,1-10.9,1.43,7.89,7.89,0,0,1-3.08-3.14,9.34,9.34,0,0,1-1.1-4.6,9.16,9.16,0,0,1,1.08-4.43,8.26,8.26,0,0,1,7.39-4.35A7,7,0,0,1,241.11,170.86Zm-9.48,1.48a6.59,6.59,0,0,0-2,4h11.25a6,6,0,0,0-1.48-4.09,5,5,0,0,0-3.73-1.46A5.76,5.76,0,0,0,231.63,172.34Z"/></svg>